<svg width="512" height="512" viewBox="0 0 512 512" fill="none" xmlns="http://www.w3.org/2000/svg">
<g clip-path="url(#clip0)">
<path d="M391 391V269.492L269.492 391H391Z" fill="#EB6028"/>
<path d="M466.996 121.004H511.996V15.0078C511.996 8.9414 508.351 3.46484 502.738 1.14843C497.129 -1.19532 490.684 0.124991 486.391 4.40234L4.39833 486.395C0.105366 490.688 -1.1837 497.133 1.14443 502.742C3.46084 508.352 8.9374 512 15.0038 512H121V467C121 458.711 127.711 452 136 452C144.293 452 151 458.711 151 467V512H181V467C181 458.711 187.711 452 196 452C204.293 452 211 458.711 211 467V512H241V467C241 458.711 247.707 452 256 452C264.289 452 271 458.711 271 467V512H301V467C301 458.711 307.707 452 316 452C324.289 452 331 458.711 331 467V512H360.996V467C360.996 458.711 367.707 452 375.996 452C384.289 452 390.996 458.711 390.996 467V512H496.996C505.285 512 511.996 505.293 511.996 497V391H466.996C458.707 391 451.996 384.293 451.996 376.004C451.996 367.711 458.707 361.004 466.996 361.004H511.996V331.004H466.996C458.707 331.004 451.996 324.293 451.996 316.004C451.996 307.711 458.707 301.004 466.996 301.004H511.996V271.004H466.996C458.707 271.004 451.996 264.293 451.996 256.004C451.996 247.711 458.707 241.004 466.996 241.004H511.996V211.004H466.996C458.707 211.004 451.996 204.297 451.996 196.004C451.996 187.715 458.707 181.004 466.996 181.004H511.996V151.004H466.996C458.707 151.004 451.996 144.297 451.996 136.004C451.996 127.715 458.707 121.004 466.996 121.004V121.004ZM421 406C421 414.293 414.289 421 406 421H233.281C227.215 421 221.738 417.352 219.426 411.742C217.094 406.133 218.383 399.688 222.676 395.395L395.394 222.676C399.699 218.387 406.117 217.098 411.742 219.426C417.351 221.738 421 227.219 421 233.281V406Z" fill="#EB6028"/>
<path d="M69.7891 228.582L198.574 99.793L262.207 163.426L133.422 292.211L69.7891 228.582Z" fill="#EB6028"/>
<path d="M219.789 78.582L243.578 54.7969L307.207 118.426L283.418 142.215L219.789 78.582Z" fill="#EB6028"/>
<path d="M16.004 361C18.1993 361 20.3985 360.52 22.4649 359.535L103.672 320.746C105.211 320.016 106.617 319.02 107.82 317.816L112.215 313.422L48.5821 249.789L44.1876 254.188C42.9844 255.387 41.9922 256.793 41.2579 258.332L2.46881 339.543C-0.269474 345.27 0.902401 352.109 5.3985 356.605C8.26959 359.492 12.1055 361 16.004 361V361Z" fill="#EB6028"/>
<path d="M341.605 84.0312C359.152 66.4844 359.152 37.9492 341.605 20.3984C324.055 2.85156 295.52 2.85156 277.973 20.3984L264.789 33.582L328.422 97.2148L341.605 84.0312Z" fill="#EB6028"/>
</g>
<defs>
<clipPath id="clip0">
<rect width="512" height="512" fill="white"/>
</clipPath>
</defs>
</svg>
